<svg width="1600" height="1000" viewBox="0 0 1600 1000" fill="none" xmlns="http://www.w3.org/2000/svg">
  <defs>
    <linearGradient id="bg" x1="124" y1="90" x2="1404" y2="856" gradientUnits="userSpaceOnUse">
      <stop stop-color="#F7FBFC"/>
      <stop offset="1" stop-color="#EAF1F8"/>
    </linearGradient>
    <linearGradient id="screen" x1="233" y1="216" x2="838" y2="654" gradientUnits="userSpaceOnUse">
      <stop stop-color="#0E2A3C"/>
      <stop offset="1" stop-color="#153A57"/>
    </linearGradient>
    <linearGradient id="card" x1="941" y1="197" x2="1322" y2="652" gradientUnits="userSpaceOnUse">
      <stop stop-color="#F7FDFF"/>
      <stop offset="1" stop-color="#EEF6FB"/>
    </linearGradient>
  </defs>
  <rect width="1600" height="1000" rx="48" fill="url(#bg)"/>
  <circle cx="251" cy="183" r="122" fill="#CDEEF0" fill-opacity="0.7"/>
  <circle cx="1367" cy="812" r="177" fill="#D9E7FF" fill-opacity="0.72"/>
  <rect x="138" y="182" width="808" height="501" rx="28" fill="#D8E2EA"/>
  <rect x="172" y="214" width="739" height="430" rx="22" fill="url(#screen)"/>
  <rect x="435" y="686" width="208" height="26" rx="13" fill="#BAC7D4"/>
  <rect x="336" y="714" width="409" height="26" rx="13" fill="#CED7E0"/>
  <rect x="229" y="292" width="188" height="118" rx="18" fill="#163D59"/>
  <rect x="229" y="292" width="188" height="38" rx="18" fill="#0F6C78"/>
  <rect x="448" y="292" width="254" height="218" rx="20" fill="#14364D"/>
  <rect x="728" y="292" width="123" height="85" rx="20" fill="#163D59"/>
  <rect x="728" y="396" width="123" height="114" rx="20" fill="#14364D"/>
  <rect x="229" y="439" width="188" height="71" rx="18" fill="#173D57"/>
  <path d="M288 565H794" stroke="#2E6181" stroke-width="10" stroke-linecap="round"/>
  <path d="M288 598H652" stroke="#2E6181" stroke-width="10" stroke-linecap="round"/>
  <circle cx="303" cy="350" r="20" fill="#8EF1B8"/>
  <circle cx="359" cy="350" r="14" fill="#D9F8FF"/>
  <circle cx="515" cy="362" r="20" fill="#8FD9FF"/>
  <circle cx="624" cy="404" r="16" fill="#8EF1B8"/>
  <circle cx="787" cy="334" r="13" fill="#D9F8FF"/>
  <path d="M303 350L359 350L515 362L624 404L787 334" stroke="#8FD9FF" stroke-width="8" stroke-linecap="round"/>
  <rect x="982" y="189" width="408" height="519" rx="34" fill="url(#card)"/>
  <rect x="1030" y="236" width="311" height="102" rx="22" fill="#0F6C78"/>
  <rect x="1030" y="364" width="311" height="139" rx="24" fill="#FFFFFF"/>
  <rect x="1030" y="525" width="311" height="135" rx="24" fill="#FFFFFF"/>
  <circle cx="1087" cy="288" r="24" fill="#E8FDFF"/>
  <path d="M1136 272H1296" stroke="#D9F8FF" stroke-width="12" stroke-linecap="round"/>
  <path d="M1136 304H1231" stroke="#D9F8FF" stroke-width="12" stroke-linecap="round"/>
  <path d="M1086 432C1086 392 1118 360 1158 360C1197 360 1230 392 1230 432C1230 472 1197 504 1158 504C1118 504 1086 472 1086 432Z" fill="#E8FDFF"/>
  <circle cx="1158" cy="432" r="17" fill="#0F6C78"/>
  <circle cx="1098" cy="452" r="14" fill="#1D4F91"/>
  <circle cx="1218" cy="394" r="14" fill="#1D4F91"/>
  <path d="M1113 447L1143 437M1175 421L1203 402" stroke="#0F6C78" stroke-width="8" stroke-linecap="round"/>
  <path d="M1128 592L1172 635L1263 544" stroke="#8EF1B8" stroke-width="18" stroke-linecap="round" stroke-linejoin="round"/>
  <path d="M1028 97L1101 135" stroke="#A2D7FF" stroke-width="10" stroke-linecap="round"/>
  <path d="M1262 108L1208 154" stroke="#A2D7FF" stroke-width="10" stroke-linecap="round"/>
  <circle cx="1120" cy="109" r="14" fill="#1D4F91"/>
  <circle cx="1190" cy="169" r="14" fill="#0F6C78"/>
  <circle cx="1285" cy="89" r="14" fill="#1D4F91"/>
</svg>
