<svg width="512" height="512" viewBox="0 0 512 512" fill="none" xmlns="http://www.w3.org/2000/svg">
  <defs>
    <linearGradient id="bg" x1="96" y1="72" x2="420" y2="436" gradientUnits="userSpaceOnUse">
      <stop stop-color="#0F6C78"/>
      <stop offset="1" stop-color="#1D4F91"/>
    </linearGradient>
    <linearGradient id="glow" x1="140" y1="126" x2="374" y2="374" gradientUnits="userSpaceOnUse">
      <stop stop-color="#EFFCFF"/>
      <stop offset="1" stop-color="#D6E8FF"/>
    </linearGradient>
  </defs>
  <rect x="64" y="64" width="384" height="384" rx="108" fill="url(#bg)"/>
  <path d="M256 124L342 157C366 166 382 189 382 215V274C382 338 332 394 256 422C180 394 130 338 130 274V215C130 189 146 166 170 157L256 124Z" fill="#0A2430" fill-opacity="0.22"/>
  <path d="M256 140L330 169C350 177 364 196 364 217V272C364 330 319 382 256 408C193 382 148 330 148 272V217C148 196 162 177 182 169L256 140Z" stroke="url(#glow)" stroke-width="16" stroke-linejoin="round"/>
  <circle cx="206" cy="210" r="17" fill="#EFF7FF"/>
  <circle cx="306" cy="190" r="17" fill="#EFF7FF"/>
  <circle cx="317" cy="287" r="17" fill="#EFF7FF"/>
  <circle cx="196" cy="304" r="17" fill="#EFF7FF"/>
  <circle cx="258" cy="254" r="19" fill="#D6F6F6"/>
  <path d="M221 208L241 228M274 244L290 203M211 298L242 268M274 262L301 281" stroke="#D6F6F6" stroke-width="12" stroke-linecap="round"/>
  <path d="M205 353L236 384L309 311" stroke="#8EF1B8" stroke-width="20" stroke-linecap="round" stroke-linejoin="round"/>
</svg>
